# xmcd CD database file
#
# Track frame offsets:
#	150
#	22812
#	47580
#	76712
#	104567
#	126387
#	149907
#	175052
#	205272
#
# Disc length: 3096 seconds
#
# Revision: 0
# Processed by: cddbd v1.5.1PL0 Copyright (c) Steve Scherf et al.
# Submitted via: CDex 1.51
#
DISCID=790c1609
DTITLE=Holmes, Richard "Groove" - Timeless
DYEAR=2003
DGENRE=Jazz
TTITLE0=Cheeka's dance
TTITLE1=Slo blooze
TTITLE2=Moon river
TTITLE3=Everything must change
TTITLE4=Ode to Larry Young
TTITLE5=Minor inconvenience
TTITLE6=Katherine
TTITLE7=Plenty, plenty blues
TTITLE8=Groove's groove
EXTD=YEAR: 2003
EXTT0=
EXTT1=
EXTT2=
EXTT3=
EXTT4=
EXTT5=
EXTT6=
EXTT7=
EXTT8=
PLAYORDER=
